<svg xmlns="http://www.w3.org/2000/svg" xmlns:xlink="http://www.w3.org/1999/xlink" version="1.1" x="0px" y="0px" viewBox="0 25 100 113.75" enable-background="new 0 25 100 91" xml:space="preserve"><g><path d="M70,39.7C70,40.2,70,40.6,70,41.2c0,0.2,0,0.5,0,0.7H53.3c-0.1-2-1.8-3.7-3.8-3.7c-2,0-3.7,1.6-3.8,3.7H29.3   c0-0.2,0-0.5,0-0.7c0-0.5,0-1-0.1-1.5h-4.7c-0.1,0.5-0.1,0.9-0.1,1.5c0,2.8,1.1,5.2,2.4,5.2c0.5,0,1-0.3,1.4-1L42,47.2   c0.9,0.2,5,0.8,5,1.6c-0.1,0.6-1,1.3-1.5,1.5l-1.4,0.3c-0.9,0-1.5,0.7-1.5,1.5v1.5l-9.6,5l0.5,5.9h1.8l0.4-4.5l10.8-5h5.9l10.8,5   l0.4,4.5h1.8l0.5-5.9l-9.5-5v-1.6c0-0.9-0.7-1.5-1.5-1.5L54,50.5c-0.3-0.2-1.6-0.9-1.7-1.7c-0.1-1,5-1.7,5.1-1.7L71,45.2   c0.4,0.6,0.9,1,1.4,1c1.4,0,2.4-2.4,2.4-5.2c0-0.5,0-1-0.1-1.5H70V39.7z"/><path d="M81.9,37.2c-3.7,0-7,0.1-8.9,0.2c-0.2-0.3-0.3-0.6-0.6-0.6c-0.2,0-0.5,0.3-0.6,0.7c-1.9-0.2-5.1-0.4-8.6-0.4   c-5.9,0-10.7,0.7-10.7,1.1c0,0.3,4.8,0.3,10.7,0.3c3.4,0,6.5-0.1,8.4-0.2c0,0.1,0,0.2,0,0.2c0,0.2,0,0.3,0,0.5h1.5   c0-0.2,0-0.3,0-0.5s0-0.3,0-0.5c1.9,0.2,5.1,0.4,8.8,0.4c5.9,0,10.7-0.7,10.7-1.1S87.8,37.2,81.9,37.2z"/><path d="M26.1,38.6c0,0.2,0,0.3,0,0.5h1.5c0-0.2,0-0.3,0-0.5s0-0.3,0-0.5c1.9,0.2,5.1,0.4,8.8,0.4c5.9,0,10.7-0.7,10.7-1.1   s-4.8-0.3-10.7-0.3c-3.7,0-7,0.1-8.9,0.2c-0.2-0.3-0.3-0.6-0.6-0.6c-0.2,0-0.5,0.3-0.6,0.7c-1.9-0.2-5.1-0.4-8.6-0.4   C11.8,37.1,7,37.8,7,38.1s4.8,0.3,10.7,0.3c3.4,0,6.5-0.1,8.4-0.2C26.1,38.4,26.1,38.5,26.1,38.6z"/></g><g><g><g><path d="M51.9,79.6V64.6c0-0.4-0.3-0.7-0.7-0.7c-0.4,0-0.7,0.3-0.7,0.7v14.9c0,0.4,0.3,0.7,0.7,0.7     C51.6,80.2,51.9,80,51.9,79.6z M48.6,73V58.1c0-0.4-0.3-0.7-0.7-0.7c-0.4,0-0.7,0.3-0.7,0.7V73c0,0.4,0.3,0.7,0.7,0.7     C48.3,73.7,48.6,73.4,48.6,73z M55.9,77.1c5.4-4,13.1-3.7,18.1,1.2c5.5,5.4,5.7,14.3,0.3,19.8c-2.7,2.7-6.3,4.2-10,4.3     c-0.5,0-0.8,0-1.3-0.1c-3.4,3.3-8,5.3-12.9,5.3c-5,0-9.7-2-13-5.4c-0.8,0.1-1.7,0.2-2.5,0.2c-3.7,0-7.3-1.6-10-4.3     c-5.4-5.5-5.2-14.5,0.3-19.8c5-4.9,12.8-5.2,18.2-1.1v-1.4c0-1.9,0-4.4,0-7.4c0-2.7,0-1.7,0-4.5c0-0.7,0-1.2,0-1.7     c0-0.3,0-0.5,0-0.7c0-0.5,0.5-1,1-1s1,0.5,1,1c0,0.1,0,0.3,0,0.7c0,0.5,0,1.1,0,1.7c0,2.9,0,1.8,0,4.6c0,3.1,0,5.6,0,7.5     c0,1,0,1.9-0.1,2.5c0,0.3,0,0.6,0,0.7s0,0.2,0,0.3c-0.1,0.5-0.1,0.4-0.3,0.7c-0.4,0.4-1,0.4-1.4,0c-4.6-4.8-12.3-5-17.1-0.3     c-4.8,4.6-5,12.3-0.3,17.1c2.3,2.3,5.4,3.7,8.6,3.7c0.3,0,0.7,0,1,0c-0.7-0.9-1.3-1.8-1.8-2.9c-0.3-0.5-0.1-1,0.5-1.3     c0.5-0.3,1-0.1,1.3,0.5c2.7,5.5,8.4,9,14.6,9c3.8,0,7.5-1.4,10.4-3.7c-0.8-0.2-1.6-0.5-2.4-0.9c-0.5-0.3-0.7-0.8-0.5-1.3     c0.3-0.5,0.8-0.7,1.3-0.5c1.6,0.8,3.5,1.2,5.3,1.2c3.2,0,6.3-1.3,8.6-3.7c4.6-4.8,4.5-12.5-0.3-17.1c-4.8-4.6-12.5-4.5-17.1,0.3     c-0.4,0.4-1,0.4-1.4,0c-0.3-0.3-0.3-0.2-0.3-0.7c0-0.1,0-0.1,0-0.3c0-0.2,0-0.4,0-0.7c0-0.6,0-1.4-0.1-2.5c0-1.9,0-4.4,0-7.5     c0-2.7,0-1.7,0-4.6c0-0.7,0-1.2,0-1.7c0-0.3,0-0.5,0-0.7c0-0.5,0.5-1,1-1c0.5,0,1,0.5,1,1c0,0.1,0,0.3,0,0.7c0,0.5,0,1.1,0,1.7     c0,2.9,0,1.8,0,4.5c0,3.1,0,5.6,0,7.4c0,0.5,0,1,0,1.4L55.9,77.1z"/></g></g></g><text x="0" y="131" fill="#000000" font-size="5px" font-weight="bold" font-family="'Helvetica Neue', Helvetica, Arial-Unicode, Arial, Sans-serif">Created by Nick Bluth</text><text x="0" y="136" fill="#000000" font-size="5px" font-weight="bold" font-family="'Helvetica Neue', Helvetica, Arial-Unicode, Arial, Sans-serif">from the Noun Project</text></svg>